<?xml version="1.0" encoding="UTF-8" standalone="no"?>
<!-- Created with Inkscape (http://www.inkscape.org/) -->

<svg
   width="256"
   height="256"
   viewBox="0 0 67.733332 67.733333"
   version="1.1"
   id="svg1"
   xml:space="preserve"
   inkscape:version="1.3.2 (091e20e, 2023-11-25)"
   sodipodi:docname="album.svg"
   xmlns:inkscape="http://www.inkscape.org/namespaces/inkscape"
   xmlns:sodipodi="http://sodipodi.sourceforge.net/DTD/sodipodi-0.dtd"
   xmlns="http://www.w3.org/2000/svg"
   xmlns:svg="http://www.w3.org/2000/svg"><sodipodi:namedview
     id="namedview1"
     pagecolor="#ffffff"
     bordercolor="#666666"
     borderopacity="1.0"
     inkscape:showpageshadow="2"
     inkscape:pageopacity="0.0"
     inkscape:pagecheckerboard="0"
     inkscape:deskcolor="#d1d1d1"
     inkscape:document-units="mm"
     inkscape:zoom="1.8547559"
     inkscape:cx="-1.8870408"
     inkscape:cy="150.42411"
     inkscape:window-width="2560"
     inkscape:window-height="1387"
     inkscape:window-x="0"
     inkscape:window-y="25"
     inkscape:window-maximized="1"
     inkscape:current-layer="layer1" /><defs
     id="defs1" /><g
     inkscape:label="Layer 1"
     inkscape:groupmode="layer"
     id="layer1"><path
       id="rect1"
       style="fill:#000000;fill-opacity:1;stroke:none;stroke-width:0.272"
       d="m 12.91127,6.6573004 c -3.3529062,0 -6.0523443,2.6994382 -6.0523443,6.0523446 v 34.194812 c 0,3.049461 2.235339,5.550874 5.1619593,5.979996 -0.01591,-0.17964 -0.02791,-0.360758 -0.02791,-0.544669 V 19.254539 c 0,-3.857255 3.607266,-7.161911 7.565389,-7.161911 h 32.681767 c 0.303632,0 0.59951,0.02959 0.890902,0.07235 C 52.856981,9.0695686 50.275077,6.6573004 47.106082,6.6573004 Z"
       sodipodi:nodetypes="ssscsssscss" /><rect
       style="fill:#000000;fill-opacity:1;stroke:none;stroke-width:0.272"
       id="rect2"
       width="46.299191"
       height="46.299191"
       x="15.298862"
       y="15.313577"
       ry="6.0521822" /><circle
       style="fill:#ffffff;fill-opacity:1;stroke:none;stroke-width:0.31967;stroke-opacity:1"
       id="path3"
       cx="29.99498"
       cy="28.772318"
       r="5.7495732" /><path
       style="fill:#ffffff;fill-opacity:1;stroke:none;stroke-width:0.264583px;stroke-linecap:butt;stroke-linejoin:miter;stroke-opacity:1"
       d="m 21.258978,55.737479 h 34.37896 c 0,0 -9.553836,-20.003863 -11.554753,-19.932004 -1.721418,0.06182 -4.850146,10.698848 -7.703169,10.698847 -2.14452,-1e-6 -3.066592,-3.138327 -5.706054,-2.995676 -2.639462,0.14265 -9.414984,12.228833 -9.414984,12.228833 z"
       id="path4"
       sodipodi:nodetypes="ccsszc" /></g></svg>
